<svg width="700" height="700" viewBox="0 0 700 700" fill="none" xmlns="http://www.w3.org/2000/svg">
<rect x="0.5" y="0.5" width="699" height="699" rx="44.5" fill="#359838" stroke="black"/>
<path d="M306.72 643.82L161.02 321.4H231.52L286.51 444.54C298.73 471.8 311.42 516.92 311.42 516.92C311.42 516.92 323.64 472.27 335.86 444.54L389.44 321.4H453.36L313.3 643.82H306.72ZM491.82 560.16C497.93 580.84 514.85 592.59 543.52 592.59C566.55 592.59 583.94 583.66 593.81 576.61L630 615.62C610.73 632.54 586.29 645.23 544.46 645.23C473.02 645.23 426.96 601.99 426.96 540.42C426.96 479.79 475.37 436.55 537.41 436.55C609.32 436.55 648.33 490.13 643.63 560.16H491.82ZM490.88 523.5H579.71C576.89 501.41 562.79 488.25 537.88 488.25C512.97 488.25 496.05 499.53 490.88 523.5Z" fill="#323330"/>
</svg>
