<svg width="700" height="700" viewBox="0 0 700 700" fill="none" xmlns="http://www.w3.org/2000/svg">
<path d="M237.026 571.6L51.0258 160H141.026L211.226 317.2C226.826 352 243.026 409.6 243.026 409.6C243.026 409.6 258.626 352.6 274.226 317.2L342.626 160H424.226L245.426 571.6H237.026ZM443.323 464.8C451.123 491.2 472.723 506.2 509.323 506.2C538.723 506.2 560.923 494.8 573.523 485.8L619.723 535.6C595.123 557.2 563.923 573.4 510.523 573.4C419.323 573.4 360.523 518.2 360.523 439.6C360.523 362.2 422.323 307 501.523 307C593.323 307 643.123 375.4 637.123 464.8H443.323ZM442.123 418H555.523C551.923 389.8 533.923 373 502.123 373C470.323 373 448.723 387.4 442.123 418Z" fill="#359838"/>
</svg>
